<!DOCTYPE svg PUBLIC "-//W3C//DTD SVG 1.1//EN" "http://www.w3.org/Graphics/SVG/1.1/DTD/svg11.dtd">
<!-- Uploaded to: SVG Repo, www.svgrepo.com, Transformed by: SVG Repo Mixer Tools -->
<svg width="256px" height="256px" viewBox="0 0 48.00 48.00" xmlns="http://www.w3.org/2000/svg" fill="#ffffff" stroke="#ffffff" stroke-width="1.9200000000000004">
<g id="SVGRepo_bgCarrier" stroke-width="0"/>
<g id="SVGRepo_tracerCarrier" stroke-linecap="round" stroke-linejoin="round" stroke="#fefbfb" stroke-width="2.304">
<defs>
<style>.a{fill:none;stroke:#ffffff;stroke-linecap:round;stroke-linejoin:round;}</style>
</defs>
<path class="a" d="M30.7087,4.5H23.2355c-5.4473,0-10.1982,4.2944-9.88,12.0757H7.9886v7.2454h5.7247V43.5H22.211V23.8211h8.8555V43.5h8.9449V16.5758H22.7478V14.6973a2.8052,2.8052,0,0,1,2.8484-2.9518h5.1125Z"/>
</g>
<g id="SVGRepo_iconCarrier">
<defs>
<style>.a{fill:none;stroke:#ffffff;stroke-linecap:round;stroke-linejoin:round;}</style>
</defs>
<path class="a" d="M30.7087,4.5H23.2355c-5.4473,0-10.1982,4.2944-9.88,12.0757H7.9886v7.2454h5.7247V43.5H22.211V23.8211h8.8555V43.5h8.9449V16.5758H22.7478V14.6973a2.8052,2.8052,0,0,1,2.8484-2.9518h5.1125Z"/>
</g>
</svg>